<?xml version="1.0" encoding="UTF-8"?>
<svg width="16px" height="16px" viewBox="0 0 16 16" version="1.1" xmlns="http://www.w3.org/2000/svg" xmlns:xlink="http://www.w3.org/1999/xlink">
    <!-- Generator: Sketch 61.2 (89653) - https://sketch.com -->
    <title>Combined Shape</title>
    <desc>Created with Sketch.</desc>
    <g id="Commander-5.0-new-version" stroke="none" stroke-width="1" fill="none" fill-rule="evenodd">
        <g id="home-normal" transform="translate(-1244.000000, -102.000000)" fill="#FFFFFF" fill-rule="nonzero">
            <g id="Group-Copy-37" transform="translate(1220.000000, 92.000000)">
                <path d="M37.2089918,24.4010004 C37.4186859,24.4007356 37.6198823,24.4838502 37.7682523,24.6320326 C37.9166223,24.7802151 37.9999913,24.9813062 37.9999913,25.1910005 C37.9999913,25.6281822 37.646172,25.9828974 37.2089918,25.984 L26.7909983,25.999 C26.3538651,25.999 25.9994987,25.6446336 25.9994987,25.2075005 C25.9994987,24.7703674 26.3538651,24.416001 26.7909983,24.416001 L37.2089918,24.4010004 Z M37.1479918,10.0000014 C37.9027058,9.99815138 38.6272323,10.2962474 39.162115,10.8286919 C39.6969977,11.3611365 39.9984006,12.0842936 40,12.8390082 L40,12.8390082 L40,20.5000014 C39.9984006,21.2547181 39.6969977,21.9778752 39.162115,22.5103197 C38.6272323,23.0427643 37.9027058,23.3408603 37.1479918,23.3390103 L37.1479918,23.3390103 L26.8519982,23.3390103 C26.0972842,23.3408603 25.3727577,23.0427643 24.837875,22.5103197 C24.3029923,21.9778752 24.0015894,21.2547181 24,20.5000014 L24,20.5000014 L24,12.8390082 C24.0015894,12.0842936 24.3029923,11.3611365 24.837875,10.8286919 C25.3727577,10.2962474 26.0972842,9.99815138 26.8519982,10.0000014 L26.8519982,10.0000014 Z M37.1479918,11.548009 L26.8519982,11.548009 C26.1359987,11.549009 25.555999,12.1260087 25.555999,12.8390082 L25.555999,12.8390082 L25.555999,20.5000034 C25.5567938,20.8429284 25.6937828,21.1714923 25.93683,21.4134143 C26.1798772,21.6553362 26.5090732,21.7907992 26.8519982,21.7900061 L26.8519982,21.7900061 L37.1479918,21.7900061 C37.8639913,21.7900061 38.443991,21.213003 38.443991,20.5000034 L38.443991,20.5000034 L38.443991,12.8380082 C38.443991,12.1260087 37.8639913,11.548009 37.1479918,11.548009 L37.1479918,11.548009 Z M35.4169929,14.0000075 L36.755992,15.4860066 L32.2959948,19.5010041 L31.3769954,18.4800047 L30.2899961,17.3140054 L28.3379973,19.0150044 L26.9999981,17.5300053 L30.458996,14.5150072 L31.7319952,15.9290063 L32.4359947,16.6840058 L35.4169929,14.0000075 Z" id="Combined-Shape"></path>
            </g>
        </g>
    </g>
</svg>